@startuml BlackboxViewApplication
hide empty members



interface InterfaceListController #lightblue

class ConcreteListController #lightblue
ConcreteListController ..> ConcreteItemList: <<manage>>
ConcreteListController ..> ItemFactory
ConcreteListController -u-|> InterfaceListController
ConcreteListController ..> ItemListFactory

interface InterfaceItem #lightblue

' interface InterfaceQuantity #lightblue

abstract class AbstractItemList #lightblue
AbstractItemList o-r- Item
AbstractItemList ..> InterfaceItem

' class Quantity #lightblue
' Quantity -lo Item
' Quantity --|> InterfaceQuantity

enum Unit #lightblue
Unit -lo Item

class ItemListFactory #lightblue
ItemListFactory --> ConcreteItemList: <<create>>

class ConcreteItemList #lightblue
ConcreteItemList --|> AbstractItemList

class ItemFactory #lightblue
ItemFactory ..> Item: <<create>>

class Item #lightblue
Item --|> InterfaceItem
' Item ..> InterfaceQuantity

interface Repository #khaki

class Services #plum
Services .r.> Repository
Services ..> InterfaceListController



legend bottom right
| **Color**         | **Layer**             |
| <#khaki>          | Repositories          |
| <#lightblue>      | Application layer     |
| <#plum>           | Service layer         |
end legend
@enduml

# API
The API is going to be the central element that talks to all the services and acts as the interface
to the outer world.

# Services
The services act as a decoupling layer between the API and the application code. Services should be
light weight and act as a kind of main-program for each functionality.
Service-architecture is a lot of overhead but adds a lot of decoupling and insures that the
application-code can be easily maintained without breaking the infrastructure around it.

# Repository
The repository is the central interface for accessing storage of any kind. It is being fed by the
services and provides decoupling between the databases (or other storage-techniques) and the
application.

# Listcontrollers
ConcreteListController and RecipeController will both manage the lists that derive from
AbstractItemList. They will create new lists, remember existing lists and also provide access to
every list. This is also needed, so the services do not have to remember which lists are existing.
That way the services are stateless and only act as a trigger for the requests of the api.

# ItemFactory
The itemfactory produces items for the controllers. It decouples the instantiation of an item from
the Controller.





# Decisions
Language and Framework:
Laguage that is going to be used mainly in this project is kotlin.
This is a fast growing modern language, that runs on most operating systems and us fun to use.
Pros:
- Fun language
- Easy to read
- Cross platform
Cons:
- Small community -> fewer support
- High learning curve

The framework that is going to be used for this project is Compose multiplatform.
With this it should be possible to run a graphical user interface (GUI)
on most platforms and maybe even web in future as well.
Pros:
- Cross platform
- Web in Beta
Contra:
- Web in Beta
- Small community -> fewer support

# Authentication:
Firebender is going to be the choice for Authentication.

# Services
Each ConcreteList will need a dedicated service. This makes for less complicated Application-code.
Downside with this is that each time a ConcreteItemList is being changed, created or deleted,
the corresponding service also has to be changed, created or deleted.
This leads to higher coupling but lower overall complexity.