@startuml
hide empty members


interface API
API ...> ItemListService


class ItemListBuilder #lightblue
ItemListBuilder ..> ConcreteItemList: <<create>>

class ConcreteItemList #lightblue
ConcreteItemList -d-|> ItemListPrototype: <<implement>>

class ItemBuilder #lightblue
ItemBuilder ..> ConcreteItem: <<create>>

class ConcreteItem #lightblue
ConcreteItem --|> AbstractItem: <<implement>>

abstract class AbstractItem #lightblue
AbstractItem "1..n" .l.o "0..n" ItemListPrototype
AbstractItem -- Unit

class Unit #lightblue

interface Repository #khaki

' This will be two services actually:
'   RecipeService
'   ShoppingListService
'   ItemService
' Since this would drastically reduce readability of the diagram those two services will both be
' presented by "ItemListService"
class ItemListService #plum {
}
ItemListService .l.> Repository
ItemListService ..> ItemListBuilder
ItemListService ..> ItemBuilder
ItemListService ..> ConcreteItemList
ItemListService ..> ConcreteItem

note right of ItemListService: This will be three services: \nRecipeService, ShoppingListService & ItemService \nSince this would drastically reduce readability of the diagram, \nthose two services will both be presented by: "ItemListService"

abstract class ItemListPrototype #lightblue
ItemListPrototype -- Quantity

class Quantity #lightblue

legend bottom right
| **Color**         | **Layer**             |
| <#lightgreen>     | Database layer        |
| <#khaki>          | Repositories          |
| <#lightblue>      | Application layer     |
| <#plum>           | Service layer         |
end legend
@enduml

# Decisions
Language and Framework:
Laguage that is going to be used mainly in this project is kotlin.
This is a fast growing modern language, that runs on most operating systems and us fun to use.
Pros:
- Fun language
- Easy to read
- Cross platform
Cons:
- Small community -> fewer support
- High learning curve

The framework that is going to be used for this project is Compose multiplatform.
With this it should be possible to run a graphical user interface (GUI)
on most platforms and maybe even web in future as well.
Pros:
- Cross platform
- Web in Beta
Contra:
- Web in Beta
- Small community -> fewer support

# Authentication:
Firebender is going to be the choice for Authentication.

# Services
Each ConcreteList will need a dedicated service. This makes for less complicated Application-code.
Downside with this is that each time a ConcreteItemList is being changed, created or deleted,
the corresponding service also has to be changed, created or deleted.
This leads to higher coupling but lower overall complexity.